<?xml version="1.0" encoding="UTF-8"?>
<svg width="700pt" height="700pt" version="1.1" viewBox="0 0 700 700" xmlns="http://www.w3.org/2000/svg" xmlns:xlink="http://www.w3.org/1999/xlink">
<g>
  <path d="m189.72 273.12c-0.23438 0.64453-0.042968 1.3672 0.48047 1.8164 1.3672 1.1719 33.766 28.766 59.949 39.004v-0.003906c2.2695 0.95312 4.6992 1.4727 7.1641 1.5312 2.1406 0.039062 4.25-0.53516 6.082-1.6484 4.375-2.7227 7.0664-8.75 7.8867-17.805l-0.003906-0.003906c0.58984-6.1367-1.4375-12.242-5.5898-16.805-4.1484-4.5625-10.027-7.1641-16.195-7.1602h-58.23c-0.6875 0.007813-1.3008 0.43359-1.543 1.0742zm59.773 2.1875c5.2266-0.023438 10.215 2.1797 13.715 6.0586 3.5391 3.8867 5.2852 9.082 4.8125 14.316-0.72266 7.8984-2.9219 13.203-6.3555 15.312-2.5586 1.5859-6.0391 1.5312-10.324-0.14062-20.781-8.125-46.332-28.078-55.531-35.559z"/>
  <path d="m531.02 232.84v-7.1875 0.003906c0.003906-3.5703-1.4102-6.9922-3.9336-9.5156-2.5195-2.5273-5.9414-3.9453-9.5078-3.9492h-1.4531l-0.003906-75.262c0-1.5078-1.2227-2.7344-2.7344-2.7344-1.5078 0-2.7344 1.2266-2.7344 2.7344v75.262h-1.4531c-7.3984 0.007812-13.402 5.9883-13.43 13.387l-60.758-64.148c-10.172-10.734-23.992-17.27-38.742-18.32s-29.359 3.4609-40.949 12.645c-5.6016 4.4727-12.555 6.9062-19.723 6.9062-7.1641 0-14.117-2.4336-19.719-6.9062-11.586-9.1641-26.184-13.66-40.922-12.602-14.734 1.0547-28.543 7.5859-38.703 18.312l-87.203 92.004-0.078125 0.097656c0 0.078125-0.12109 0.14062-0.17578 0.23047l-0.14062 0.21875c-0.042969 0.078125-0.082032 0.16016-0.10938 0.24219-0.042969 0.074219-0.074219 0.15625-0.097657 0.23828-0.035156 0.082031-0.054687 0.16797-0.066406 0.25391-0.007812 0.085937-0.007812 0.17578 0 0.26172-0.007812 0.085938-0.007812 0.17578 0 0.26172-0.011718 0.089844-0.011718 0.17578 0 0.26172-0.011718 0.089844-0.011718 0.17578 0 0.26562 0 0.078125 0 0.16406 0.054688 0.25 0.019531 0.085937 0.046875 0.16797 0.074218 0.25 0.035157 0.085937 0.070313 0.17188 0.10938 0.25391 0.035156 0.074219 0.074218 0.14844 0.12109 0.21875l0.16406 0.24219 0.066406 0.097656 26.184 31.141c30.176 35.914 80.785 57.375 135.35 57.375h50.18c42.777 0 84.098-13.508 114.39-37.188l0.003906 114.64c-0.003906 0.72656 0.28516 1.4219 0.79688 1.9375 0.51172 0.51172 1.2109 0.80078 1.9375 0.79688h71.148c0.72266 0 1.418-0.28906 1.9336-0.80078 0.51172-0.51562 0.80078-1.2109 0.80078-1.9336v-158.25c-0.011719-6.7578-1.9688-13.363-5.6367-19.035s-8.8906-10.168-15.047-12.949zm-29.793-7.1875v0.003906c0.003906-4.3984 3.5742-7.9648 7.9727-7.9648h8.3789c4.3984 0 7.9648 3.5664 7.9727 7.9648v5.2383c-2.918-0.76953-5.918-1.1602-8.9375-1.1602h-6.4414c-3.0195 0-6.0273 0.39062-8.9453 1.1602zm-24.348 27.969c-0.37891-0.46484-0.90234-0.79297-1.4883-0.92969-0.32812-0.078125-32.977-7.8633-68.152-34.137v0.003907c-6.6289-4.9727-14.605-7.8242-22.883-8.1797-8.2773-0.35547-16.473 1.8008-23.5 6.1875-7.5469 4.8047-16.309 7.3555-25.258 7.3555-8.9453 0-17.707-2.5508-25.254-7.3555-7.0312-4.3984-15.23-6.5586-23.516-6.207-8.2852 0.35156-16.27 3.207-22.902 8.1875-35.176 26.25-67.812 34.059-68.152 34.137-1.3398 0.32422-2.2305 1.5938-2.0742 2.9648 0.15625 1.3711 1.3086 2.4102 2.6875 2.4258h278.43c0.32422 0 0.64844-0.058593 0.94922-0.17578-0.45312 2.2773-0.67969 4.5938-0.67578 6.9141v36.562c-29.609 24.652-71.203 38.785-114.39 38.785h-50.184c-52.969 0-102.02-20.715-131.2-55.422l-24.609-29.27 85.465-90.234v0.003906c9.1953-9.8047 21.746-15.781 35.152-16.738 13.406-0.95312 26.68 3.1836 37.168 11.586 6.5664 5.2344 14.719 8.0859 23.117 8.0859 8.3984 0 16.547-2.8516 23.117-8.0859 10.488-8.4023 23.762-12.539 37.168-11.586 13.402 0.95703 25.957 6.9336 35.148 16.738l64.246 67.812c-8.6758 4.0703-15.32 11.5-18.406 20.57zm-19.402-0.96094h-243.75c19.098-7.4062 37.086-17.395 53.473-29.684 5.7422-4.3203 12.656-6.7969 19.832-7.1094 7.1758-0.3125 14.281 1.5547 20.375 5.3594 8.4258 5.3672 18.211 8.2188 28.203 8.2188 9.9922 0 19.773-2.8516 28.203-8.2188 6.0898-3.8047 13.191-5.6719 20.367-5.3594s14.086 2.7891 19.828 7.1094c16.387 12.285 34.379 22.273 53.473 29.684zm23.078 48.422h7.6562v25.156h-7.6562zm65.68 119.3h-65.68v-88.594h7.6562v53.496c0 0.78906 0.5 1.4883 1.2461 1.75 0.19531 0.0625 0.39844 0.097656 0.60156 0.097656 0.57422-0.003906 1.1133-0.26953 1.4648-0.72266l29.258-37.723c11.473-14.848 17.711-33.07 17.742-51.832v-32.035c-0.007812-5.8164-2.3203-11.391-6.4297-15.5-4.1133-4.1133-9.6875-6.4258-15.5-6.4297h-6.4531c-5.8164 0.003906-11.391 2.3164-15.5 6.4297-4.1133 4.1094-6.4258 9.6836-6.4297 15.5v30.746h-7.6562v-30.746c-0.003906-7.8633 3.1133-15.402 8.668-20.965s13.09-8.6914 20.949-8.6992h6.4414c7.8555 0.007812 15.383 3.1328 20.938 8.6836 5.5508 5.5547 8.6758 13.082 8.6836 20.934zm-38.859-94.062h-15.445v-25.156h15.445-0.003906c1.5117 0 2.7344-1.2227 2.7344-2.7344 0-1.5117-1.2227-2.7344-2.7344-2.7344h-15.441v-30.875c0.003907-4.8359 1.9297-9.4688 5.3477-12.887 3.418-3.418 8.0508-5.3438 12.883-5.3477h6.4531c4.8359 0.003906 9.4688 1.9297 12.887 5.3477 3.418 3.418 5.3438 8.0508 5.3477 12.887v31.949-0.003906c-0.03125 17.941-5.9961 35.367-16.965 49.559l-25.953 33.469v-48.125h15.445-0.003906c1.5117 0 2.7344-1.2227 2.7344-2.7344 0-1.5078-1.2227-2.7344-2.7344-2.7344z"/>
 </g>
</svg>
