<?xml version="1.0" encoding="UTF-8"?>
<svg width="700pt" height="700pt" version="1.1" viewBox="0 0 700 700" xmlns="http://www.w3.org/2000/svg" xmlns:xlink="http://www.w3.org/1999/xlink">
<g>
  <path d="m530.88 275.62c-1.6914-39.602-17.551-77.277-44.688-106.17l-8.3242-8.9375v0.003906c-19.375-20.891-31.418-47.52-34.312-75.863l-0.054688-0.60156c-0.11719-1.4141-1.3008-2.5039-2.7227-2.5039h-181.56c-1.3867-0.003906-2.5586 1.0273-2.7227 2.4062-3.4062 28.672-16.191 55.414-36.367 76.07l-3.3594 3.4219c-29.98 30.625-46.945 70.492-47.754 112.3v3.5234 6.3867c-0.011719 34.293 9.7188 67.887 28.055 96.863l59.859 94.652h0.003906c0.50391 0.79297 1.3789 1.2695 2.3164 1.2695h181.53c0.94922 0.003906 1.832-0.48828 2.3281-1.3008l61.25-100.11c17.43-28.469 26.652-61.199 26.645-94.578 0.011719-2.2852-0.03125-4.6484-0.12109-6.8359zm-30.121 96.82-1.4219-1.1602c-4.5508 5.5234-9.8008 10.434-15.617 14.602l1.9141 2.668c3.9844-2.8633 7.7148-6.0625 11.156-9.5586l-57.543 94.062h-86.855v-127.03c0.66797 2.0352 1.3906 4.0586 2.1875 6.0391l3.0312-1.2461v-0.003907c-2.5586-6.207-4.3203-12.711-5.2383-19.359v-10.938c0-1.5117-1.2266-2.7344-2.7344-2.7344-1.5117 0-2.7344 1.2227-2.7344 2.7344v14.996c-1.1328 5.9375-2.9453 11.727-5.4062 17.246l2.9961 1.3359c0.89844-2.0117 1.6836-4.0703 2.4062-6.1367l0.003906 125.02h-86.188l-59.062-93.383c-1.5078-2.3828-2.9414-4.8125-4.375-7.2617 4.4609 5.5664 9.5938 10.555 15.289 14.852l1.9805-2.6133c-5.7109-4.3203-10.832-9.3633-15.238-15.008l-2.4375 1.9141c-3.5977-6.4102-6.7852-13.039-9.5469-19.852l1.2031-0.50391-0.32812-0.80859-1.2031 0.48047c-8.2852-20.715-12.543-42.82-12.547-65.133v-6.3867-3.4141c0.78906-40.469 17.195-78.98 46.188-108.59l3.3594-3.4219c20.449-20.922 33.641-47.855 37.625-76.836h176.7c3.3477 28.852 15.805 55.891 35.559 77.184l8.3125 8.9375c26.246 27.93 41.59 64.355 43.234 102.65 0.078125 2.1875 0.12109 4.4531 0.12109 6.6719-0.003906 31.664-8.5664 62.742-24.785 89.938z"/>
  <path d="m434.62 224.22c-40.676 0-74.945 27.344-84.625 64.148-9.6797-36.805-43.945-64.148-84.625-64.148-1.5078 0-2.7344 1.2227-2.7344 2.7344s1.2266 2.7344 2.7344 2.7344c45.148 0 81.891 35.844 81.891 79.91 0 1.5078 1.2227 2.7344 2.7344 2.7344s2.7344-1.2266 2.7344-2.7344c0-44.066 36.738-79.91 81.891-79.91 1.5078 0 2.7344-1.2227 2.7344-2.7344s-1.2266-2.7344-2.7344-2.7344z"/>
  <path d="m314.76 385.63 1.9258 2.6562v0.003907c6.0312-4.3594 11.465-9.4844 16.168-15.246l-2.5391-2.0781c-4.5234 5.543-9.75 10.477-15.555 14.664z"/>
  <path d="m275.19 400.98 0.38281 3.2812c7.3906-0.85156 14.641-2.6406 21.578-5.3281l-1.1914-3.0508c-6.6797 2.5742-13.656 4.2852-20.77 5.0977z"/>
  <path d="m231.88 398.22c6.8789 2.8398 14.098 4.7852 21.469 5.7852l0.44922-3.2812c-7.0977-0.95703-14.047-2.8242-20.672-5.5547z"/>
  <path d="m368.35 369.29-2.5938 2.0117h0.003907c4.5547 5.8828 9.8594 11.148 15.77 15.664l2-2.6016h0.003906c-5.6953-4.3438-10.801-9.4102-15.184-15.074z"/>
  <path d="m444.06 401.01 0.35938 3.2812c7.3945-0.82422 14.652-2.5859 21.602-5.2383l-1.1797-3.1172c-6.6836 2.5703-13.668 4.2734-20.781 5.0742z"/>
  <path d="m400.79 398.12c6.8672 2.8555 14.074 4.8281 21.438 5.8633l0.46094-3.2812c-7.0898-0.99609-14.023-2.8906-20.629-5.6445z"/>
</g>
</svg>
