<?xml version="1.0" encoding="UTF-8"?>
<svg width="700pt" height="700pt" version="1.1" viewBox="0 0 700 700" xmlns="http://www.w3.org/2000/svg" xmlns:xlink="http://www.w3.org/1999/xlink">
<g>
  <path d="m529.38 109.31v-17.793h-5.4688v17.793c0.070312 69.156-13.957 137.6-41.234 201.15-13.051 30.527-17.766 63.973-13.66 96.918l0.085937 0.6875c0 0.10938 0 0.20703 0.066406 0.31641l15.039 60.102 5.3047-1.3242-15.008-59.949-0.054688-0.51563v0.003907c-3.9883-31.973 0.58594-64.434 13.258-94.062 27.57-64.238 41.75-133.42 41.672-203.33z"/>
  <path d="m243.29 163.22-2.2656-2.375c-4.8672 4.6367-10.391 9.4375-16.406 14.285l2.0547 2.5586c6.0977-4.875 11.684-9.7656 16.617-14.469z"/>
  <path d="m173.95 215.05h-1.3672l-1.082-1.4453-0.83203 0.625v22.477h3.2812z"/>
  <path d="m267.76 126.68-3.1406-0.96094v-0.003906c-2.0195 6.8398-5.0977 13.32-9.1211 19.207l2.6797 1.8828c4.2305-6.1641 7.4648-12.957 9.582-20.125z"/>
  <path d="m273.52 99.629v-0.12109l-3.2266-0.54687v0.12109c-0.31641 1.8594-0.625 3.6953-0.94141 5.4688l3.2266 0.57031c0.32031-1.7852 0.63672-3.6211 0.94141-5.4922z"/>
  <path d="m172.81 258.76c1.4297 7.2734 3.5664 14.387 6.3867 21.242l3.0312-1.2578c-2.75-6.6484-4.832-13.555-6.2148-20.617z"/>
  <path d="m192.5 202.08c2.3281-1.4648 8.6172-5.4688 16.613-11.156l-1.8906-2.6797c-7.9414 5.6328-14.164 9.6016-16.473 11.059-0.46875 0.29687-1.0938 0.65625-1.7383 1.1602l1.9453 2.6484c0.58203-0.42969 1.082-0.76953 1.543-1.0312z"/>
  <path d="m220.8 330.72c6.1484 4.1406 12.688 7.668 19.523 10.531l1.2578-3.0312c-6.6328-2.7695-12.98-6.1797-18.953-10.18z"/>
  <path d="m283.58 346.53c-7.1914 0-14.363-0.70312-21.418-2.0977l-0.63281 3.2148c7.2617 1.4453 14.645 2.1797 22.051 2.1875z"/>
  <path d="m189.64 299.5c4.1172 6.1523 8.8242 11.891 14.055 17.129l2.3203-2.3203v0.003906c-5.0781-5.0898-9.6445-10.66-13.641-16.637z"/>
  <path d="m284.38 157.5 0.31641-0.75391c8.8672-20.613 13.434-42.816 13.422-65.254h-5.4688v1.3555c-0.16406 0.27344-0.27734 0.57422-0.33984 0.88672-0.51563 2.8672-1.0078 5.7656-1.5 8.6719-3.5547 21-7.2305 42.723-24.062 61.719-22.828 25.781-58.109 48.465-64.957 52.762l-0.49219 0.31641-8.75 6.5625v0.003906c-0.6875 0.51562-1.0938 1.3281-1.0938 2.1875v10.938c0.03125 24.426 9.7461 47.84 27.016 65.109 17.273 17.27 40.688 26.98 65.113 27.008 2.1094 0 4.2344-0.078125 6.3438-0.23047-3.043 39.434-8.7383 78.613-17.043 117.28l-4.4297 20.32 5.3477 1.1602 4.375-20.312v0.003906c8.5703-39.918 14.383-80.383 17.391-121.1v-0.19531c0.63281-8.4219 1.1484-16.828 1.543-25.223l0.10938-2.2852c0.03125-0.76563-0.25781-1.5117-0.79688-2.0547-0.54688-0.54688-1.2969-0.83984-2.0664-0.80078-1.1602 0.054687-2.3398 0.085937-3.4766 0.078125-35.613-0.24219-63.613-27.039-64.312-61.25 1.2148-0.96094 3.3906-2.7227 6.2461-5.2266l-0.003906-0.003906c22.363-19.707 39.992-44.207 51.57-71.672zm-62.18 73.379c-0.69141 0.51562-1.0938 1.3281-1.0938 2.1875 0 37.898 30.625 67.812 69.758 68.055h0.78906c-0.35156 7.3594-0.80859 14.742-1.3359 22.125-2.2539 0.17578-4.5078 0.29688-6.7578 0.29688-22.973-0.019531-45.004-9.1484-61.254-25.387-16.25-16.242-25.395-38.266-25.426-61.238v-9.5703l7.5703-5.6758 0.20703-0.13281c6.9453-4.375 42.82-27.43 66.148-53.758 2.5781-2.918 4.9609-6 7.1328-9.2305-11.246 25.43-27.863 48.125-48.715 66.52-4.2227 3.7422-6.9688 5.8086-7 5.832z"/>
</g>
</svg>
