<?xml version="1.0" encoding="UTF-8"?>
<svg width="700pt" height="700pt" version="1.1" viewBox="0 0 700 700" xmlns="http://www.w3.org/2000/svg" xmlns:xlink="http://www.w3.org/1999/xlink">
<g>
  <path d="m201.12 367.5-3.2812-0.19531c-0.14063 2.5586-0.21875 5.1406-0.21875 7.6562 0 4.8125 0.26562 9.625 0.78906 14.414l3.2812-0.35156c-0.51172-4.6719-0.76953-9.3711-0.76562-14.074-0.023437-2.4609 0.042969-4.9883 0.19531-7.4492z"/>
  <path d="m259.8 186.61 3.2148-0.625h0.003906c-0.85156-4.3008-1.9453-8.5469-3.2812-12.719l-2.7031-8.5117-3.1289 0.98438 2.7031 8.5195v0.003906c1.2969 4.0508 2.3633 8.1719 3.1914 12.348z"/>
  <path d="m259.64 229.45 3.2148 0.64453v0.003906c1.4453-7.2617 2.1758-14.648 2.1875-22.051h-3.2812c-0.011719 7.1875-0.72266 14.355-2.1211 21.402z"/>
  <path d="m202.63 411.12c2.0117 7.1094 4.6055 14.039 7.7656 20.719l2.9648-1.4102v-0.003906c-3.082-6.5117-5.6172-13.27-7.582-20.199z"/>
  <path d="m230.09 90.508 3.1289-0.99219 4.0195 12.668-3.1289 0.99219z"/>
  <path d="m240.72 124.03 3.1289-0.99219 6.6133 20.852-3.1289 0.99219z"/>
  <path d="m225.91 298.4 7.1641-9.8438-2.6484-1.9375-7.1641 9.8438c-1.9375 2.6484-3.7969 5.3828-5.4688 8.1602l2.7891 1.7383c1.6328-2.7031 3.4453-5.3828 5.3281-7.9609z"/>
  <path d="m220.31 451.36 2.9258-1.4883 9.9102 19.5-2.9258 1.4883z"/>
  <path d="m443.56 174.26 0.10938-0.33984-3.1289-0.99609-0.10937 0.33984c-2.2031 6.9453-3.7344 14.09-4.5703 21.328l3.2812 0.37109c0.80859-7.0273 2.2891-13.961 4.418-20.703z"/>
  <path d="m447.13 152.07 6.6133-20.852 3.1289 0.99219-6.6133 20.852z"/>
  <path d="m442.54 237.66c-1.9492-6.9219-3.2266-14.016-3.8086-21.184l-3.2812 0.26172c0.59766 7.3789 1.9062 14.684 3.918 21.809z"/>
  <path d="m460.36 110.36 6.6133-20.852 3.1289 0.99219-6.6133 20.852z"/>
  <path d="m497.35 397.44 3.2266 0.57031v-0.003906c1.2773-7.2734 1.9453-14.641 2-22.027h-3.2812c-0.050781 7.1953-0.70312 14.371-1.9453 21.461z"/>
  <path d="m485.24 433.7-2.1875 4.375 2.9219 1.4883 2.1875-4.375v-0.003906c2.5938-5.1094 4.8555-10.383 6.7812-15.781l-3.0938-1.0938h-0.003906c-1.8672 5.2656-4.0742 10.406-6.6055 15.391z"/>
  <path d="m467.1 469.42 6.0234-11.848 2.9258 1.4883-6.0234 11.848z"/>
  <path d="m451.86 398.04-78.543-57.301 97.805-73.992 11.473 38.129c-1.7773-2.8711-3.6641-5.6758-5.6562-8.4102l-2.1016-2.875-2.6562 1.9375 2.1094 2.875 0.003907-0.003906c3.5625 4.8711 6.7773 9.9883 9.625 15.312l1.1484-0.61328 7.9609 26.457 1.2266-0.37109c1.4492 5.0312 2.5859 10.145 3.4141 15.312l3.2812-0.52344v-0.003906c-0.85938-5.2969-2.0312-10.535-3.5117-15.695l0.86328-0.26172-22.52-74.777 14.043-10.578c4.2539-3.2461 6.7461-8.2891 6.7383-13.641v-16.723c0.011719-0.72656-0.27344-1.4258-0.78906-1.9375-0.51563-0.51172-1.2188-0.79297-1.9453-0.77344h-26.797c-0.55859-16.016 1.9141-31.988 7.2852-47.086l29.039-81.539-5.1523-1.8359-29.07 81.504c-7.9961 22.469-9.7773 46.68-5.1641 70.078l-113.87 83.047-114.04-83.125c4.5977-23.375 2.8086-47.559-5.1875-70l-29.039-81.527-5.1523 1.8359 29.039 81.539h0.003906c5.3594 15.102 7.8164 31.074 7.25 47.086h-26.609c-0.15625-0.015625-0.31641-0.015625-0.47266 0-0.22266 0.050781-0.4375 0.12109-0.64453 0.21875h-0.066407l-0.078125 0.066406h0.003906c-0.16406 0.089844-0.32031 0.19531-0.46094 0.31641l-0.10938 0.085938v0.003906c-0.16016 0.14844-0.29688 0.31641-0.41406 0.5-0.027344 0.042969-0.050782 0.085938-0.066407 0.13281-0.09375 0.15234-0.16797 0.32031-0.21875 0.49219-0.007812 0.058594-0.007812 0.11719 0 0.17578-0.0625 0.21484-0.09375 0.44141-0.097656 0.66797v16.723c-0.058594 5.3594 2.4062 10.438 6.6484 13.715l13.879 10.5-22.531 74.812 1.0938 0.32812c-0.67969 2.3516-1.3125 4.7148-1.8594 7.0977l3.2031 0.73438c0.52344-2.3203 1.0938-4.6055 1.793-6.8906l1.0273 0.30469 21.953-72.91 97.969 74.113-78.543 57.301c-0.58594 0.4375-0.98047 1.0898-1.0938 1.8164-0.10938 0.72656 0.082031 1.4648 0.52734 2.0469l14.613 19.328v-0.003906c0.43359 0.58203 1.0859 0.96094 1.8047 1.0586 0.71875 0.10156 1.4453-0.089844 2.0234-0.53125l83.879-63.438 83.879 63.438c0.57812 0.44141 1.3047 0.63281 2.0234 0.53125 0.71875-0.097657 1.3672-0.47656 1.8047-1.0586l14.625-19.328v0.003906c0.44141-0.58594 0.62891-1.3203 0.52344-2.0469-0.11328-0.73047-0.51562-1.3906-1.1172-1.8242zm33.602-173.01-16.613 12.117c-0.71094-4.0156-1.2031-8.0625-1.5195-12.117zm-252.79 0c-0.30469 4.0117-0.80469 8.0195-1.5 12.031l-16.406-12.031zm-18.984 23.25c-2.8906-2.1875-4.5898-5.5977-4.5938-9.2188v-11.387l136.37 99.531-13.969 10.184zm51.406 167.51-11.289-14.93 13.672-9.9648 0.80859 1.0938c-2.3945 2.8008-2.5312 6.8906-0.32812 9.8438 2.2383 2.9688 6.25 3.9609 9.6133 2.3867l1.0156 1.3438zm16.121-12.195-2.8984-3.8281-1.3008 0.99609c-0.97266 0.73047-2.1992 1.0469-3.4023 0.875-2.5039-0.35156-4.25-2.6602-3.9062-5.1641 0.16406-1.2031 0.80078-2.2969 1.7734-3.0273l1.3008-0.98437-2.625-3.5469 220.94-161.24v11.344-0.003906c-0.003906 3.6211-1.6992 7.0352-4.582 9.2227zm73.422-48.695 14.133-10.688 61.25 44.734-2.6562 3.5117 1.3125 0.98438-0.003906 0.003906c2.0234 1.5273 2.4219 4.4023 0.89453 6.4258-1.5312 2.0195-4.4062 2.418-6.4258 0.89062l-1.3125-0.99609-2.8867 3.8281zm80.457 60.879-13.484-10.203 1.0156-1.3438v-0.003907c3.3633 1.5859 7.375 0.59375 9.6211-2.3672 2.2422-2.9648 2.1016-7.0977-0.33594-9.9023l0.80859-1.0938 13.672 9.9648z"/>
  <path d="m351.14 238.41h0.58984c2.0859 0 3.7734 2.0859 3.7734 3.7734v8.707c0 2.0859-1.6875 3.7734-3.7734 3.7734h-0.58984c-2.0859 0-3.7734-2.0859-3.7734-3.7734v-8.707c0-2.0859 1.6875-3.7734 3.7734-3.7734z"/>
</g>
</svg>
