<?xml version="1.0" encoding="UTF-8"?>
<svg width="700pt" height="700pt" version="1.1" viewBox="0 0 700 700" xmlns="http://www.w3.org/2000/svg" xmlns:xlink="http://www.w3.org/1999/xlink">
<g>
  <path d="m263.59 375.16-2.5039 2.1875c4.6836 5.6914 9.7461 11.062 15.148 16.078l2.1875-2.418c-5.293-4.9453-10.246-10.238-14.832-15.848z"/>
  <path d="m237.17 340.31c3.2969 6.582 6.9492 12.977 10.938 19.164l2.7578-1.7734c-3.918-6.0859-7.5039-12.383-10.742-18.855z"/>
  <path d="m441.41 359.21 2.7461 1.8047h-0.003906c4.0391-6.1523 7.7422-12.516 11.094-19.066l-2.9219-1.4883c-3.2969 6.4453-6.9414 12.703-10.914 18.75z"/>
  <path d="m413.44 392.18 2.1875 2.4375c5.4609-4.9453 10.578-10.258 15.312-15.902l-2.5039-2.1094c-4.6406 5.5234-9.6484 10.727-14.996 15.574z"/>
  <path d="m377.16 415.05 1.1719 3.0742c6.9219-2.6758 13.555-6.043 19.797-10.051l-1.7617-2.7656c-6.0547 3.8867-12.492 7.1523-19.207 9.7422z"/>
  <path d="m293.59 407.06c6.1641 4.1016 12.723 7.5781 19.578 10.379l1.2266-3.0391v-0.003906c-6.6484-2.7188-13.008-6.0938-18.988-10.07z"/>
  <path d="m382.98 349.77c0.066407-0.078125 0.12109-0.16406 0.17578-0.25 0.03125-0.066406 0.054687-0.12891 0.074218-0.19922 0-0.066406 0.054688-0.12109 0.078126-0.17578 0.023437-0.054687 0-0.066406 0-0.085937v-0.21875c0.003906-0.089844 0.003906-0.17969 0-0.27344v-0.20703c-0.023438-0.09375-0.058594-0.18359-0.097657-0.27344v-0.097657l-0.054687-0.078125c-0.050782-0.082031-0.10938-0.16016-0.17578-0.23047l-0.15234-0.15234-0.054688-0.066406-12.219-9.625c-0.71094-0.57031-1.3906-1.1914-2.1094-1.8477l-0.13281-0.12109c-2.5-2.2812-5.8242-3.457-9.2031-3.25-3.3828 0.20703-6.5391 1.7734-8.7461 4.3438-0.9375 1.0742-2.293 1.6914-3.7188 1.6953-1.4219 0.003906-2.7773-0.61328-3.7188-1.6836-2.2266-2.543-5.3906-4.082-8.7695-4.2617-3.3789-0.18359-6.6875 1.0078-9.1758 3.3008l-0.12109 0.10938c-0.72266 0.66797-1.3984 1.3008-2.1211 1.8711l-12.172 9.6914v0.054687l-0.14062 0.16406-0.003906-0.003906c-0.066407 0.070312-0.125 0.14844-0.17578 0.23047l-0.054688 0.078125c-0.003906 0.03125-0.003906 0.066407 0 0.097657-0.039062 0.089843-0.074219 0.17969-0.097656 0.27344-0.003906 0.070313-0.003906 0.13672 0 0.20703-0.007813 0.09375-0.007813 0.18359 0 0.27344v0.21875c0.003906 0.03125 0.003906 0.058594 0 0.089844 0 0.066406 0 0.10937 0.078125 0.17578l-0.003907-0.003907c0.023438 0.070313 0.046876 0.13281 0.078126 0.19922 0.054687 0.085938 0.11719 0.17188 0.1875 0.25 0.015624 0.042969 0.042968 0.085938 0.074218 0.12109l6.6484 6.8125h0.003906c7.5781 8.2969 18.293 13.031 29.531 13.051h0.03125c11.25-0.035156 21.965-4.8008 29.531-13.125l6.6484-6.8906c0.03125-0.058593 0.058593-0.12109 0.078124-0.1875zm-9.1328 4.7695c-6.957 7.6914-16.836 12.09-27.207 12.109-10.371 0.015624-20.266-4.3438-27.25-12.012l-3.0938-3.1836 1.6289 0.29688c5.0391 1.2266 10.152 2.1289 15.312 2.6914 4.375 0.60156 8.7852 0.90625 13.199 0.90625h0.23047c4.4883-0.011718 8.9688-0.33594 13.41-0.97266 5.1562-0.58203 10.273-1.5039 15.312-2.7578l1.6406-0.30469zm2.0117-6.4297h-0.12109l-1.0938 0.26172-11.023 2.0664c-1.3359 0.25-2.6797 0.46875-4.0234 0.65625-8.6133 0.98438-17.309 1.0078-25.922 0.066406-1.3438-0.1875-2.6914-0.39453-4.0352-0.63281l-11.035-2.0117c-0.35937-0.097656-0.73437-0.17578-1.0938-0.26172h-0.13281l-1.957-0.32812 9.3086-7.4062c0.80859-0.65625 1.5625-1.3555 2.2969-2.0352l0.12109-0.10938h-0.003906c1.8398-1.6914 4.2852-2.5664 6.7812-2.4297 2.4922 0.13672 4.8281 1.2734 6.4766 3.1484 1.5625 1.7852 3.8203 2.8047 6.1875 2.8008 2.3789 0 4.6367-1.0352 6.1914-2.832 1.6406-1.8867 3.9688-3.0352 6.4648-3.1836 2.4961-0.14453 4.9453 0.72266 6.793 2.4062l0.14062 0.12109c0.72266 0.66797 1.4766 1.3672 2.2969 2l9.3281 7.3594z"/>
  <path d="m346.62 309.53c4.4844-0.003906 8.7852-1.7891 11.957-4.9609 3.1719-3.1719 4.957-7.4727 4.9609-11.961v-27.297c0-6.0469-3.2227-11.633-8.457-14.656-5.2383-3.0195-11.688-3.0195-16.922 0-5.2344 3.0234-8.4609 8.6094-8.4609 14.656v27.289c0.003906 4.4844 1.7852 8.7891 4.9609 11.965 3.1719 3.1719 7.4727 4.9609 11.961 4.9648zm-13.641-44.211c0-7.5312 6.1055-13.637 13.641-13.637 7.5312 0 13.637 6.1055 13.637 13.637v27.289c0 7.5352-6.1055 13.641-13.637 13.641-7.5352 0-13.641-6.1055-13.641-13.641z"/>
  <path d="m306.97 239.83-3.0195-4.5508-2.0781 1.3867c-5.8438 3.875-12.75 5.832-19.758 5.6016-7.0078-0.23047-13.77-2.6406-19.344-6.8906l-3.2812 4.375c6.4805 4.9414 14.34 7.7383 22.484 8.0078 8.1445 0.26563 16.168-2.0078 22.961-6.5078z"/>
  <path d="m428.54 236.66c-5.8438 3.8789-12.75 5.8359-19.758 5.6055-7.0078-0.23438-13.77-2.6406-19.344-6.8945l-3.2812 4.375c6.4805 4.9414 14.34 7.7383 22.484 8.0078 8.1406 0.26563 16.168-2.0078 22.961-6.5078l2.1016-1.3984-3.0195-4.5508z"/>
  <path d="m502.28 160.64c-4.5156-11.156-8.4336-20.781-7.6562-32.332 0.13672-2.1875 0.33203-4.375 0.57812-6.5625h7.7266c2.9727 0 5.3828-2.4102 5.3906-5.3828v-69.824h-5.4688v39.309h-6.5625v-39.309h-3.2812v39.309h-13.047v-39.309h-3.2812v39.309h-6.5625v-39.309h-5.4688v69.824c0.007812 0.51953 0.09375 1.0352 0.25 1.5312-16.926-36.145-49.453-62.57-88.297-71.734-38.848-9.1641-79.754-0.0625-111.05 24.707-31.297 24.77-49.551 62.492-49.559 102.41v55.43h-10.707c-4.8633 0.003906-9.5312 1.9414-12.969 5.3828-3.4414 3.4414-5.3789 8.1055-5.3828 12.969v28.438c0.007812 8.3711 3.2734 16.406 9.1094 22.406 5.832 5.9961 13.773 9.4883 22.137 9.7305 7.2188 69.211 31.84 98 65.254 109.75-0.31641 29.312-1.957 63.438-10.938 96.5-0.1875 0.70312-0.089844 1.4492 0.27344 2.0781 0.35938 0.62891 0.95703 1.0859 1.6562 1.2773 1.4609 0.39062 2.9609-0.47266 3.3555-1.9336 8.9141-32.977 10.688-66.895 11.07-96.172 17.293 5.043 36.707 6.082 57.125 6.0938h0.60156c20.66 0 40.281-1.0938 57.727-6.2656 0.37109 29.355 2.1875 63.352 11.07 96.348v-0.003906c0.39062 1.4609 1.8906 2.3242 3.3516 1.9336 1.457-0.39453 2.3242-1.8945 1.9297-3.3555-8.9453-33.062-10.578-67.309-10.938-96.711 33.109-11.891 57.488-40.742 64.664-109.52 8.4688-0.089844 16.562-3.5195 22.527-9.5352 5.9609-6.0195 9.3086-14.148 9.3203-22.621v-28.438c-0.003907-2.6406-0.57812-5.2539-1.6836-7.6562 5.25-9.3477 8.1406-19.84 8.4219-30.559 0.49219-20.715-5.4688-35.293-10.688-48.199zm-309.88 114.84v-28.438h0.003906c0.011718-7.1133 5.7734-12.875 12.883-12.887h10.707v27.539c0 14.777 0.57812 28.207 1.6641 40.469v0.003906c-6.8164-0.375-13.234-3.3477-17.93-8.3047-4.6992-4.957-7.3203-11.523-7.3242-18.352zm277.64-153.74h0.625v10.598c-1.457-4.3906-3.1406-8.7031-5.043-12.918 0.99609 1.457 2.6523 2.3281 4.418 2.3203zm-248.58 69.715v-18.188c0.007812-42.73 21.809-82.5 57.824-105.49 36.02-22.984 81.273-26.012 120.03-8.0234 38.758 17.988 65.656 54.508 71.352 96.852v51.953c-15.898-39.242-49.895-68.301-91.133-77.895l-4.2773-0.98438c-29.996-6.8984-61.465-2.8906-88.773 11.305-27.312 14.195-48.672 37.648-60.262 66.164l-4.7578 11.672zm248.17 109.02-1.8906-0.49219c-1.793 7.0039-3.9844 13.902-6.5625 20.66l3.0625 1.1719c1.7617-4.5938 3.2812-9.2539 4.7148-13.891-4.5078 41.922-15.828 70.953-34.258 88.145-7.9688 7.3867-17.426 12.98-27.738 16.406-0.52734 0.019532-1.0391 0.1875-1.4766 0.49219-16.352 5.3359-35.723 6.7578-58.832 6.7812h-0.60156c-22.969 0-42.273-1.4336-58.57-6.6836-0.24609-0.12891-0.51172-0.22266-0.78516-0.27344-10.68-3.4062-20.477-9.1211-28.691-16.746-18.879-17.609-30.285-47.664-34.562-91.25 1.4219 5.0977 3.0859 10.203 4.9648 15.312l3.0742-1.0938c-2.5234-6.7812-4.6602-13.695-6.3984-20.719l-2.1875 0.53516c-0.92578-11.449-1.3945-23.797-1.3984-37.047v-28.445l9.8438-24.129c11.098-27.297 31.551-49.758 57.699-63.352 26.145-13.598 56.277-17.441 85-10.848l4.2773 0.98438c22.148 5.1406 42.469 16.242 58.754 32.105 16.289 15.867 27.926 35.883 33.648 57.891v48.027l0.37109-0.23047c-0.24219 9.3984-0.72656 18.293-1.457 26.688zm0.48047-184.2 0.003907-27.148h32.691v27.148zm30.727 159.24c-0.011719 6.9297-2.7148 13.586-7.5391 18.562-4.8203 4.9766-11.391 7.8867-18.316 8.1133 0.875-9.8438 1.4023-20.488 1.5859-31.938 9.4492-6.6562 17.637-14.945 24.18-24.477 0.050781 0.42578 0.082031 0.85156 0.089844 1.2773zm6.7383-66.773c-0.57031 27.66-21.406 47.141-30.941 54.621l-0.003907-31.312c0.39844-0.48047 0.61328-1.0859 0.61328-1.707v-57.07c0.007812-5.6992-0.35938-11.391-1.0938-17.043v-34.484h13.531c-0.21875 2.0469-0.40625 4.125-0.53516 6.2227-0.80859 12.785 3.5234 23.449 8.0938 34.727 5.0195 12.414 10.727 26.523 10.336 46.047z"/>
  <path d="m483.09 243.6c-0.28125 0.33203-0.42188 0.76172-0.38672 1.1953 0.035156 0.4375 0.24219 0.83984 0.57422 1.1211 0.69141 0.58203 1.7227 0.49219 2.3086-0.19531 9.9766-11.758 15.172-24.238 15.434-37.109 0.054687-2.8438 0-5.6758-0.24219-8.4453-0.070313-0.90234-0.85938-1.5781-1.7617-1.5117-0.90234 0.082031-1.5703 0.87109-1.5078 1.7734 0.20703 2.6484 0.28516 5.3828 0.23047 8.1055-0.25391 12.105-5.1758 23.898-14.648 35.066z"/>
</g>
</svg>
