<?xml version="1.0" encoding="UTF-8"?>
<svg width="700pt" height="700pt" version="1.1" viewBox="0 0 700 700" xmlns="http://www.w3.org/2000/svg" xmlns:xlink="http://www.w3.org/1999/xlink">
<g>
  <path d="m467.17 297.71-0.44922-0.066406-0.90625-0.60156c-8.1484-5.5234-16.078-11.551-23.766-17.402-31.105-23.648-60.473-45.938-112.08-45.938-51.602 0-80.938 22.336-112.09 46.004-7.7539 5.8945-15.773 12.031-24.062 17.566l0.46094 0.67969-1.4883 0.21875c6.3633 43.621 33.098 81.613 72.008 102.33 38.91 20.719 85.359 21.691 125.1 2.6211 39.742-19.074 68.043-55.914 76.227-99.23 9.6016 6.375 19.789 11.816 30.43 16.242l2.0664-5.0625c-11.047-4.6328-21.598-10.375-31.488-17.141 0.015625-0.070312 0.027344-0.14453 0.03125-0.21875zm-203.01-42.129c0.12109-0.35938 0.17578-0.54688 0.20703-0.67969 18.125-9.4375 38.797-15.773 65.625-15.773s47.457 6.332 65.625 15.762l0.1875 0.58984h-0.003906c5.3516 16.789 4.0859 34.988-3.543 50.875-7.625 15.887-21.031 28.254-37.48 34.582-16.445 6.3242-34.688 6.125-50.992-0.55859 5.2227-4.0273 8.3516-10.195 8.5117-16.789 0.16016-6.5938-2.6641-12.906-7.6836-17.184-5.0195-4.2773-11.703-6.0625-18.188-4.8555-6.4844 1.207-12.078 5.2734-15.223 11.07-10.488-17.102-13.035-37.914-6.9805-57.039zm26.25 86.047v-0.003906c-4.9336 0-9.6641-1.957-13.148-5.4453-3.4883-3.4883-5.4453-8.2148-5.4453-13.148 0-4.9297 1.957-9.6602 5.4453-13.148 3.4844-3.4844 8.2148-5.4453 13.148-5.4453 4.9297 0 9.6602 1.9609 13.145 5.4453 3.4883 3.4883 5.4492 8.2188 5.4492 13.148-0.015624 4.9219-1.9766 9.6367-5.4531 13.121-3.4766 3.4844-8.1875 5.4492-13.109 5.4727zm-52.402-70.156c6.3672-4.5703 12.84-8.9141 19.633-12.863-5.1289 20.762-1.0977 42.723 11.066 60.309l0.23047-0.16406c-0.27734 1.3945-0.41406 2.8125-0.41406 4.2344-0.007813 7.1758 3.5 13.898 9.3906 17.992 5.8945 4.0938 13.418 5.0391 20.141 2.5273l-0.13281 0.28516c10.004 4.7773 20.953 7.2461 32.035 7.2188 22.914 0.003907 44.555-10.535 58.676-28.578 14.125-18.043 19.156-41.582 13.645-63.824 6.7812 3.9375 13.258 8.2695 19.621 12.84 0.16406 2.2539 0.26172 4.4961 0.26172 6.6953 0 32.941-17.57 63.379-46.102 79.852-28.527 16.469-63.672 16.469-92.203 0-28.527-16.473-46.102-46.91-46.102-79.852 0.011719-2.1875 0.089844-4.4414 0.25391-6.6719zm179.61 106.86c-23.859 20.867-54.383 32.539-86.078 32.91-31.695 0.375-62.484-10.574-86.828-30.875s-40.648-48.621-45.977-79.867c7.7344-5.3164 15.215-10.938 22.477-16.504 3.7188-2.8203 7.4141-5.6328 11.133-8.3906v2.5391c0 34.895 18.617 67.141 48.836 84.586 30.223 17.449 67.453 17.449 97.672 0 30.223-17.445 48.836-49.691 48.836-84.586 0-0.84375 0-1.6953-0.054688-2.5469 3.7305 2.7656 7.4375 5.5898 11.168 8.4219 7.2422 5.4688 14.723 11.18 22.445 16.484v-0.003906c-5.1523 30.191-20.562 57.684-43.629 77.832z"/>
  <path d="m384.3 154.27c-6.9805-2.3398-14.105-4.2227-21.328-5.6328l-0.625 3.2266c7.082 1.3789 14.066 3.2227 20.902 5.5234z"/>
  <path d="m424.12 172.95c-6.6953-3.9922-13.047-7.3945-19.391-10.402l-1.4102 2.9648c6.2578 2.9648 12.512 6.3203 19.129 10.258z"/>
  <path d="m496.4 222.26c-5.4688-3.3672-11.199-7.207-18.125-12.031l-1.8906 2.6914c6.9766 4.8984 12.785 8.75 18.289 12.172z"/>
  <path d="m460.47 197.45c-6.5625-4.7461-12.141-8.75-17.895-12.645l-1.793 2.7148c5.7188 3.9062 11.266 7.8516 17.816 12.59z"/>
  <path d="m330.67 148.87c3.4219 0 6.8672 0.097656 10.227 0.30469l0.19531-3.2812c-3.4219-0.19531-6.9141-0.30469-10.359-0.30469h-0.53516 0.003906c-3.7656 0.042968-7.5273 0.29688-11.266 0.76562l0.38281 3.2812c3.7656-0.49609 7.5547-0.75391 11.352-0.76562z"/>
  <path d="m223.33 195.88-2.2539-2.3828c-5.3281 5.0625-10.371 10.418-15.102 16.043l2.5039 2.1094v0.003906c4.6484-5.5352 9.6094-10.801 14.852-15.773z"/>
  <path d="m192.69 227.09c-4.0234 5.9375-7.8867 12.25-11.473 18.77l2.875 1.5859c3.5312-6.4297 7.3398-12.656 11.32-18.508z"/>
  <path d="m515.36 232.76-1.4219 2.9648c6.6367 3.2109 13.516 5.8906 20.574 8.0156l0.94141-3.1406c-6.8945-2.0742-13.613-4.6953-20.094-7.8398z"/>
  <path d="m258.05 170.11-1.6172-2.8555v0.003906c-6.3984 3.6289-12.566 7.6484-18.473 12.031l1.957 2.6367v-0.003906c5.7969-4.3047 11.852-8.25 18.133-11.812z"/>
  <path d="m167.7 274.37 3.0391 1.2578c1.1914-2.9297 2.4375-5.8633 3.707-8.75l-2.9961-1.3359c-1.2812 2.8984-2.5469 5.8633-3.75 8.8281z"/>
  <path d="m298.06 153.73-0.84375-3.1719c-7.1211 1.8984-14.113 4.2539-20.934 7.0547l1.2461 3.0312c6.6875-2.7422 13.547-5.0547 20.531-6.9141z"/>
</g>
</svg>
